<svg xmlns="http://www.w3.org/2000/svg" xmlns:xlink="http://www.w3.org/1999/xlink" version="1.1" x="0px" y="0px" viewBox="0 0 100 100" enable-background="new 0 0 100 100" xml:space="preserve"><g><path d="M50,5C25.1,5,5,25.1,5,50c0,24.9,20.1,45,45,45s45-20.1,45-45C95,25.1,74.9,5,50,5z M69.7,59c0,5-4.1,9.1-9.1,9.1   S51.5,64,51.5,59s4.1-9.1,9.1-9.1c1.7,0,3.2,0.4,4.6,1.2l-1.1-13.8l-17.2,3.1l1.7,22.5l0,0c0,0.2,0,0.3,0,0.5c0,5-4.1,9.1-9.1,9.1   s-9.1-4.1-9.1-9.1c0-5,4.1-9.1,9.1-9.1c1.7,0,3.2,0.4,4.6,1.2l-1.8-22.7l4.1-0.9l20.9-4.3l1,9.2l1.6,21.8l0,0   C69.7,58.6,69.7,58.8,69.7,59z"></path></g></svg>